<svg id="visual" viewBox="0 0 900 600" width="900" height="600" xmlns="http://www.w3.org/2000/svg" xmlns:xlink="http://www.w3.org/1999/xlink" version="1.1"><g stroke-width="1" stroke-linejoin="bevel"><path d="M480 352.9L511 414.6L527 367.9Z" fill="#c4d2df" stroke="#c4d2df"></path><path d="M480 352.9L471 451.6L511 414.6Z" fill="#a6bccf" stroke="#a6bccf"></path><path d="M480 352.9L387 436.6L471 451.6Z" fill="#b5c7d7" stroke="#b5c7d7"></path><path d="M527 367.9L530 257.1L480 352.9Z" fill="#d2dde7" stroke="#d2dde7"></path><path d="M480 352.9L355 320.9L387 436.6Z" fill="#ffffff" stroke="#ffffff"></path><path d="M547 536.3L631 416.6L511 414.6Z" fill="#c4d2df" stroke="#c4d2df"></path><path d="M511 414.6L631 416.6L527 367.9Z" fill="#f0f4f7" stroke="#f0f4f7"></path><path d="M527 367.9L609 278.1L530 257.1Z" fill="#d2dde7" stroke="#d2dde7"></path><path d="M649 317.9L609 278.1L527 367.9Z" fill="#e1e8ef" stroke="#e1e8ef"></path><path d="M430 230.1L355 320.9L480 352.9Z" fill="#c4d2df" stroke="#c4d2df"></path><path d="M438 544.3L547 536.3L471 451.6Z" fill="#98b1c7" stroke="#98b1c7"></path><path d="M471 451.6L547 536.3L511 414.6Z" fill="#6b92b0" stroke="#6b92b0"></path><path d="M631 416.6L649 317.9L527 367.9Z" fill="#a6bccf" stroke="#a6bccf"></path><path d="M527 175.4L430 230.1L530 257.1Z" fill="#c4d2df" stroke="#c4d2df"></path><path d="M530 257.1L430 230.1L480 352.9Z" fill="#a6bccf" stroke="#a6bccf"></path><path d="M387 436.6L438 544.3L471 451.6Z" fill="#7a9cb8" stroke="#7a9cb8"></path><path d="M607 600L633 535.3L547 536.3Z" fill="#a6bccf" stroke="#a6bccf"></path><path d="M547 536.3L633 535.3L631 416.6Z" fill="#ffffff" stroke="#ffffff"></path><path d="M631 416.6L702 411.6L649 317.9Z" fill="#e1e8ef" stroke="#e1e8ef"></path><path d="M430 230.1L348 241.1L355 320.9Z" fill="#98b1c7" stroke="#98b1c7"></path><path d="M732 502.3L702 411.6L631 416.6Z" fill="#ffffff" stroke="#ffffff"></path><path d="M627 169.4L530 257.1L609 278.1Z" fill="#a6bccf" stroke="#a6bccf"></path><path d="M627 169.4L527 175.4L530 257.1Z" fill="#a6bccf" stroke="#a6bccf"></path><path d="M430 230.1L359 143.4L348 241.1Z" fill="#d2dde7" stroke="#d2dde7"></path><path d="M438 544.3L522 600L547 536.3Z" fill="#98b1c7" stroke="#98b1c7"></path><path d="M355 320.9L281 427.6L387 436.6Z" fill="#7a9cb8" stroke="#7a9cb8"></path><path d="M387 436.6L334 536.3L438 544.3Z" fill="#d2dde7" stroke="#d2dde7"></path><path d="M278 342.9L281 427.6L355 320.9Z" fill="#f0f4f7" stroke="#f0f4f7"></path><path d="M438 544.3L449 600L522 600Z" fill="#6b92b0" stroke="#6b92b0"></path><path d="M372 600L449 600L438 544.3Z" fill="#d2dde7" stroke="#d2dde7"></path><path d="M279 265.1L278 342.9L355 320.9Z" fill="#89a7bf" stroke="#89a7bf"></path><path d="M281 427.6L334 536.3L387 436.6Z" fill="#98b1c7" stroke="#98b1c7"></path><path d="M527 175.4L460 155.4L430 230.1Z" fill="#d2dde7" stroke="#d2dde7"></path><path d="M702 411.6L736 364.9L649 317.9Z" fill="#7a9cb8" stroke="#7a9cb8"></path><path d="M728 283.1L627 169.4L609 278.1Z" fill="#98b1c7" stroke="#98b1c7"></path><path d="M827 450.6L736 364.9L702 411.6Z" fill="#ffffff" stroke="#ffffff"></path><path d="M522 600L607 600L547 536.3Z" fill="#e1e8ef" stroke="#e1e8ef"></path><path d="M633 535.3L732 502.3L631 416.6Z" fill="#d2dde7" stroke="#d2dde7"></path><path d="M348 241.1L279 265.1L355 320.9Z" fill="#98b1c7" stroke="#98b1c7"></path><path d="M273 153.4L279 265.1L348 241.1Z" fill="#98b1c7" stroke="#98b1c7"></path><path d="M334 536.3L372 600L438 544.3Z" fill="#f0f4f7" stroke="#f0f4f7"></path><path d="M728 283.1L609 278.1L649 317.9Z" fill="#98b1c7" stroke="#98b1c7"></path><path d="M527 175.4L528 114.7L460 155.4Z" fill="#6b92b0" stroke="#6b92b0"></path><path d="M736 364.9L728 283.1L649 317.9Z" fill="#a6bccf" stroke="#a6bccf"></path><path d="M695 600L732 502.3L633 535.3Z" fill="#a6bccf" stroke="#a6bccf"></path><path d="M196 511.3L264 514.3L281 427.6Z" fill="#89a7bf" stroke="#89a7bf"></path><path d="M281 427.6L264 514.3L334 536.3Z" fill="#d2dde7" stroke="#d2dde7"></path><path d="M334 536.3L274 600L372 600Z" fill="#89a7bf" stroke="#89a7bf"></path><path d="M201 405.6L281 427.6L278 342.9Z" fill="#6b92b0" stroke="#6b92b0"></path><path d="M610 105.7L528 114.7L527 175.4Z" fill="#98b1c7" stroke="#98b1c7"></path><path d="M388 70.7L359 143.4L460 155.4Z" fill="#a6bccf" stroke="#a6bccf"></path><path d="M460 155.4L359 143.4L430 230.1Z" fill="#7a9cb8" stroke="#7a9cb8"></path><path d="M607 600L695 600L633 535.3Z" fill="#f0f4f7" stroke="#f0f4f7"></path><path d="M149 369.9L201 405.6L278 342.9Z" fill="#98b1c7" stroke="#98b1c7"></path><path d="M703 155.4L610 105.7L627 169.4Z" fill="#a6bccf" stroke="#a6bccf"></path><path d="M627 169.4L610 105.7L527 175.4Z" fill="#ffffff" stroke="#ffffff"></path><path d="M736 364.9L800 349.9L728 283.1Z" fill="#a6bccf" stroke="#a6bccf"></path><path d="M728 283.1L703 155.4L627 169.4Z" fill="#6b92b0" stroke="#6b92b0"></path><path d="M827 450.6L800 349.9L736 364.9Z" fill="#b5c7d7" stroke="#b5c7d7"></path><path d="M827 450.6L702 411.6L732 502.3Z" fill="#98b1c7" stroke="#98b1c7"></path><path d="M791 195.4L703 155.4L728 283.1Z" fill="#98b1c7" stroke="#98b1c7"></path><path d="M196 511.3L274 600L264 514.3Z" fill="#a6bccf" stroke="#a6bccf"></path><path d="M264 514.3L274 600L334 536.3Z" fill="#ffffff" stroke="#ffffff"></path><path d="M695 600L784 514.3L732 502.3Z" fill="#e1e8ef" stroke="#e1e8ef"></path><path d="M541 0L442 68.7L528 114.7Z" fill="#6b92b0" stroke="#6b92b0"></path><path d="M528 114.7L442 68.7L460 155.4Z" fill="#98b1c7" stroke="#98b1c7"></path><path d="M253 56.7L273 153.4L359 143.4Z" fill="#7a9cb8" stroke="#7a9cb8"></path><path d="M359 143.4L273 153.4L348 241.1Z" fill="#f0f4f7" stroke="#f0f4f7"></path><path d="M171 243.1L149 369.9L278 342.9Z" fill="#b5c7d7" stroke="#b5c7d7"></path><path d="M201 405.6L196 511.3L281 427.6Z" fill="#6b92b0" stroke="#6b92b0"></path><path d="M442 68.7L388 70.7L460 155.4Z" fill="#a6bccf" stroke="#a6bccf"></path><path d="M784 514.3L827 450.6L732 502.3Z" fill="#d2dde7" stroke="#d2dde7"></path><path d="M171 243.1L278 342.9L279 265.1Z" fill="#ffffff" stroke="#ffffff"></path><path d="M201 405.6L101 419.6L196 511.3Z" fill="#a6bccf" stroke="#a6bccf"></path><path d="M838 276.1L728 283.1L800 349.9Z" fill="#f0f4f7" stroke="#f0f4f7"></path><path d="M838 276.1L791 195.4L728 283.1Z" fill="#c4d2df" stroke="#c4d2df"></path><path d="M703 155.4L732 108.7L610 105.7Z" fill="#98b1c7" stroke="#98b1c7"></path><path d="M273 153.4L171 243.1L279 265.1Z" fill="#d2dde7" stroke="#d2dde7"></path><path d="M900 311.9L838 276.1L800 349.9Z" fill="#b5c7d7" stroke="#b5c7d7"></path><path d="M791 195.4L732 108.7L703 155.4Z" fill="#6b92b0" stroke="#6b92b0"></path><path d="M610 105.7L541 0L528 114.7Z" fill="#c4d2df" stroke="#c4d2df"></path><path d="M627 0L541 0L610 105.7Z" fill="#d2dde7" stroke="#d2dde7"></path><path d="M442 68.7L423 0L388 70.7Z" fill="#7a9cb8" stroke="#7a9cb8"></path><path d="M541 0L423 0L442 68.7Z" fill="#89a7bf" stroke="#89a7bf"></path><path d="M388 70.7L253 56.7L359 143.4Z" fill="#ffffff" stroke="#ffffff"></path><path d="M273 153.4L171 164.4L171 243.1Z" fill="#a6bccf" stroke="#a6bccf"></path><path d="M176 109.7L171 164.4L273 153.4Z" fill="#b5c7d7" stroke="#b5c7d7"></path><path d="M62 342.9L101 419.6L149 369.9Z" fill="#d2dde7" stroke="#d2dde7"></path><path d="M62 342.9L149 369.9L171 243.1Z" fill="#b5c7d7" stroke="#b5c7d7"></path><path d="M149 369.9L101 419.6L201 405.6Z" fill="#f0f4f7" stroke="#f0f4f7"></path><path d="M196 511.3L156 600L274 600Z" fill="#e1e8ef" stroke="#e1e8ef"></path><path d="M784 514.3L900 490.3L827 450.6Z" fill="#98b1c7" stroke="#98b1c7"></path><path d="M827 450.6L900 400.6L800 349.9Z" fill="#a6bccf" stroke="#a6bccf"></path><path d="M695 600L829 600L784 514.3Z" fill="#7a9cb8" stroke="#7a9cb8"></path><path d="M95 485.3L156 600L196 511.3Z" fill="#7a9cb8" stroke="#7a9cb8"></path><path d="M900 490.3L900 400.6L827 450.6Z" fill="#e1e8ef" stroke="#e1e8ef"></path><path d="M705 0L627 0L610 105.7Z" fill="#a6bccf" stroke="#a6bccf"></path><path d="M339 0L253 56.7L388 70.7Z" fill="#a6bccf" stroke="#a6bccf"></path><path d="M838 276.1L900 256.1L791 195.4Z" fill="#6b92b0" stroke="#6b92b0"></path><path d="M791 195.4L819 57.7L732 108.7Z" fill="#f0f4f7" stroke="#f0f4f7"></path><path d="M900 400.6L900 311.9L800 349.9Z" fill="#98b1c7" stroke="#98b1c7"></path><path d="M101 419.6L95 485.3L196 511.3Z" fill="#98b1c7" stroke="#98b1c7"></path><path d="M423 0L339 0L388 70.7Z" fill="#98b1c7" stroke="#98b1c7"></path><path d="M829 600L900 490.3L784 514.3Z" fill="#d2dde7" stroke="#d2dde7"></path><path d="M253 56.7L176 109.7L273 153.4Z" fill="#7a9cb8" stroke="#7a9cb8"></path><path d="M80 236.1L62 342.9L171 243.1Z" fill="#d2dde7" stroke="#d2dde7"></path><path d="M900 311.9L900 256.1L838 276.1Z" fill="#c4d2df" stroke="#c4d2df"></path><path d="M732 108.7L705 0L610 105.7Z" fill="#ffffff" stroke="#ffffff"></path><path d="M339 0L297 0L253 56.7Z" fill="#f0f4f7" stroke="#f0f4f7"></path><path d="M253 56.7L172 0L176 109.7Z" fill="#e1e8ef" stroke="#e1e8ef"></path><path d="M80 236.1L171 243.1L101 161.4Z" fill="#c4d2df" stroke="#c4d2df"></path><path d="M101 419.6L0 446.6L95 485.3Z" fill="#7a9cb8" stroke="#7a9cb8"></path><path d="M785 0L705 0L732 108.7Z" fill="#e1e8ef" stroke="#e1e8ef"></path><path d="M101 161.4L171 243.1L171 164.4Z" fill="#e1e8ef" stroke="#e1e8ef"></path><path d="M0 497.3L105 600L95 485.3Z" fill="#a6bccf" stroke="#a6bccf"></path><path d="M95 485.3L105 600L156 600Z" fill="#c4d2df" stroke="#c4d2df"></path><path d="M97 60.7L101 161.4L176 109.7Z" fill="#f0f4f7" stroke="#f0f4f7"></path><path d="M176 109.7L101 161.4L171 164.4Z" fill="#d2dde7" stroke="#d2dde7"></path><path d="M829 600L900 600L900 490.3Z" fill="#a6bccf" stroke="#a6bccf"></path><path d="M900 161.4L819 57.7L791 195.4Z" fill="#ffffff" stroke="#ffffff"></path><path d="M900 256.1L900 161.4L791 195.4Z" fill="#c4d2df" stroke="#c4d2df"></path><path d="M900 0L785 0L819 57.7Z" fill="#a6bccf" stroke="#a6bccf"></path><path d="M819 57.7L785 0L732 108.7Z" fill="#c4d2df" stroke="#c4d2df"></path><path d="M900 161.4L900 94.7L819 57.7Z" fill="#6b92b0" stroke="#6b92b0"></path><path d="M0 251.1L62 342.9L80 236.1Z" fill="#7a9cb8" stroke="#7a9cb8"></path><path d="M0 251.1L0 337.9L62 342.9Z" fill="#c4d2df" stroke="#c4d2df"></path><path d="M62 342.9L0 446.6L101 419.6Z" fill="#7a9cb8" stroke="#7a9cb8"></path><path d="M0 337.9L0 446.6L62 342.9Z" fill="#ffffff" stroke="#ffffff"></path><path d="M297 0L172 0L253 56.7Z" fill="#e1e8ef" stroke="#e1e8ef"></path><path d="M0 152.4L0 251.1L80 236.1Z" fill="#89a7bf" stroke="#89a7bf"></path><path d="M0 446.6L0 497.3L95 485.3Z" fill="#e1e8ef" stroke="#e1e8ef"></path><path d="M172 0L97 60.7L176 109.7Z" fill="#6b92b0" stroke="#6b92b0"></path><path d="M0 152.4L80 236.1L101 161.4Z" fill="#98b1c7" stroke="#98b1c7"></path><path d="M0 497.3L0 600L105 600Z" fill="#98b1c7" stroke="#98b1c7"></path><path d="M0 90.7L0 152.4L101 161.4Z" fill="#f0f4f7" stroke="#f0f4f7"></path><path d="M900 94.7L900 0L819 57.7Z" fill="#f0f4f7" stroke="#f0f4f7"></path><path d="M172 0L71 0L97 60.7Z" fill="#7a9cb8" stroke="#7a9cb8"></path><path d="M97 60.7L0 90.7L101 161.4Z" fill="#a6bccf" stroke="#a6bccf"></path><path d="M71 0L0 90.7L97 60.7Z" fill="#a6bccf" stroke="#a6bccf"></path><path d="M71 0L0 0L0 90.7Z" fill="#d2dde7" stroke="#d2dde7"></path></g></svg>